<?xml version="1.0" standalone="no"?><!DOCTYPE svg PUBLIC "-//W3C//DTD SVG 1.1//EN" "http://www.w3.org/Graphics/SVG/1.1/DTD/svg11.dtd"><svg class="icon" width="200px" height="200.00px" viewBox="0 0 1024 1024" version="1.1" xmlns="http://www.w3.org/2000/svg"><path d="M692.38 468.47l-75.84-47.85-94.5-17.5s-72.32-7-78.16 0c-5.84 7-130.66 84-130.66 84l-67.68 94.5-7 66.5-9.32 144.87h68.82l19.84-168 40.84-85.37s58.32-43.15 61.82-43.15 90.8-19.85 90.8-19.85l59.7 15.18 91.01 45.5 40.82 59.5 24.5 161-4.66 35.19h65.34v-178.7l-95.67-145.82z" fill="#5D9CEC" /><path d="M830.05 525.62l-94.72-117.25-83.78-53.07-130.09-22.75h-68.25l-81.68 26.25-113.16 73.5-65.91 103.82-26.25 163.35-12.84 93.51h65.34l11.66-78.94 3.5-100.32 23.34-47.25 58.32-85.18 42.59-35 51.91-25.68 82.84-12.25s72.34 2.93 77.59 4.1c5.25 1.15 90.41 30.32 90.41 30.32l87.5 80.01 22.18 60.57 15.16 37.93v95.07l2.34 76.62h67.66V632.37l-25.66-106.75z" fill="#A0D468" /><path d="M936.21 644.62l-45.5-177.33-96.83-114.32-124.83-78.17-147.01-22.18h-86.32l-92.18 32.68-89.82 54.82-86.34 91-54.84 91.68-29.16 142.82v127.36h70l5.84-191.51 24.5-73.5 59.5-87.5 73.5-58.16 98-42.19 113.16-8.15 98 17.5 123.67 71.15 95.66 136.5 23.34 235.86h73.5z" fill="#FC6E51" /><path d="M511.34 456.99c-123.72 0-224 100.27-224 224v112h37.34v-112c0-49.87 19.42-96.74 54.67-132.01 35.25-35.25 82.13-54.66 131.99-54.66 49.86 0 96.74 19.42 131.99 54.66 35.25 35.26 54.67 82.13 54.67 132v112h37.34v-112c0-123.72-100.29-223.99-224-223.99z" fill="#AC92EB" /><path d="M511.34 382.31c-164.95 0-298.66 133.71-298.66 298.67v112H250v-112c0-35.3 6.9-69.53 20.52-101.72 13.17-31.12 32.02-59.06 56.03-83.1 24.01-24.01 51.96-42.85 83.08-56 32.18-13.62 66.4-20.54 101.7-20.54s69.52 6.92 101.7 20.54c31.12 13.15 59.08 31.99 83.08 56 24.01 24.04 42.86 51.98 56.03 83.1 13.62 32.18 20.52 66.42 20.52 101.72v112H810v-112c0-164.96-133.71-298.67-298.66-298.67z" fill="#4FC2E9" /><path d="M511.34 307.63C305.15 307.63 138 474.79 138 680.98v112h37.34v-112c0-45.39 8.87-89.39 26.39-130.78 16.93-40 41.15-75.93 72.02-106.8 30.87-30.87 66.82-55.13 106.82-72.02 41.4-17.53 85.39-26.39 130.77-26.39 45.38 0 89.37 8.86 130.77 26.39 40 16.9 75.95 41.15 106.82 72.02 30.87 30.87 55.1 66.8 72.02 106.8 17.51 41.4 26.39 85.39 26.39 130.78v112h37.34v-112c-0.01-206.19-167.16-373.35-373.34-373.35z" fill="#FFCE54" /><path d="M511.34 232.99c-247.42 0-448 200.57-448 448v112h37.34v-112c0-55.48 10.84-109.24 32.25-159.85 20.68-48.89 50.3-92.83 88.02-130.54 37.74-37.73 81.65-67.35 130.55-88.02 50.6-21.41 104.38-32.27 159.84-32.27 55.45 0 109.24 10.86 159.84 32.27 48.9 20.67 92.82 50.28 130.55 88.02 37.72 37.71 67.33 81.65 88.02 130.54C911.15 571.75 922 625.5 922 680.98v112h37.34v-112c-0.01-247.43-200.59-447.99-448-447.99z" fill="#ED5564" /></svg>