<?xml version="1.0" standalone="no"?><!DOCTYPE svg PUBLIC "-//W3C//DTD SVG 1.1//EN" "http://www.w3.org/Graphics/SVG/1.1/DTD/svg11.dtd"><svg class="icon" width="200px" height="200.00px" viewBox="0 0 1024 1024" version="1.1" xmlns="http://www.w3.org/2000/svg"><path d="M261.15008 320.32S-19.42592 334.272 99.03808 45.952c0 0-238.528 232 24.768 447.872M761.88608 312.448s280.448 13.888 161.984-274.368c0 0 238.592 232.064-24.832 447.872" fill="#EF613A" /><path d="M955.10208 726.08h-876.8v-52.544c0-241.664 196.736-438.336 438.528-438.336 241.6 0 438.272 196.672 438.272 438.336v52.544zM187.29408 621.12h658.688a333.952 333.952 0 0 0-329.216-281.088 334.144 334.144 0 0 0-329.472 281.088zM78.75008 760.384h876.8v104.96H78.75008z" fill="#F9785F" /></svg>